<svg width="470" height="160" viewBox="0 0 470 160" fill="none" xmlns="http://www.w3.org/2000/svg">
<path d="M210.051 11.8695C212.385 20.9752 220.647 27.7056 230.481 27.7056C242.128 27.7056 251.571 18.2634 251.571 6.61587C251.571 4.54447 251.272 2.54281 250.715 0.651611L210.051 11.8695Z" fill="white"/>
<path d="M54.2308 13.5578L3.01285 46.6989H15.0641V127.129C15.0641 133.154 18.077 157.257 49.7116 157.257C75.0193 157.257 87.3718 145.206 90.3846 139.18L88.8782 136.167C87.874 138.176 82.5513 142.193 69.2949 142.193C56.0385 142.193 53.7287 130.142 54.2308 124.116V51.2181H82.8526V42.1796H54.2308V13.5578Z" fill="white"/>
<path d="M100.93 51.8082L146.122 39.7569V61.763C154.658 51.2181 175.949 32.5386 192.821 42.1797L186.795 79.84C179.263 69.2951 160.583 52.7245 146.122 70.8015V129.551C146.122 147.628 152.147 153.654 152.147 153.654H100.93C100.93 153.654 106.955 147.628 106.955 129.551V63.8595C106.955 57.2438 100.93 51.8082 100.93 51.8082Z" fill="white"/>
<path d="M212.404 63.2694C212.404 56.6537 206.378 51.2181 206.378 51.2181L251.571 39.1668V128.961C251.571 147.038 257.596 153.654 257.596 153.654H206.378C206.378 153.654 212.404 147.038 212.404 128.961V63.2694Z" fill="white"/>
<path d="M284.712 63.2694C284.712 56.6537 278.686 51.2181 278.686 51.2181L323.878 39.1668V58.7502C325.887 53.2267 336.231 40.6732 361.538 40.6732C379.072 40.6732 387.495 50.1152 391.015 59.0887C394.755 52.726 407.878 40.6732 430.833 40.6732C456.141 40.6732 462.468 60.3445 462.468 69.8851V129.551C462.468 147.628 468.494 153.654 468.494 153.654H417.276C417.276 153.654 423.301 147.628 423.301 129.551V69.8851C423.301 65.3659 418.782 55.7373 409.744 55.7373C403.245 55.7373 395.853 61.4876 392.601 64.4744C393.001 66.4643 393.173 68.3124 393.173 69.8851V129.551C393.173 147.628 399.199 153.654 399.199 153.654H347.981C347.981 153.654 354.006 147.628 354.006 129.551V69.8851C354.006 65.3659 349.487 55.7373 340.449 55.7373C333.218 55.7373 326.389 62.2651 323.878 64.7758V129.551C323.878 147.628 329.904 153.654 329.904 153.654H278.686C278.686 153.654 284.712 147.628 284.712 129.551V63.2694Z" fill="white"/>
</svg>
