<svg width="520" height="168" viewBox="0 0 520 168" fill="none" xmlns="http://www.w3.org/2000/svg">
<g clip-path="url(#clip0_708_180431)">
<circle cx="83.8832" cy="83.8832" r="83.8832" fill="#FF923D"/>
<circle cx="83.8832" cy="83.8832" r="83.8832" fill="url(#paint0_linear_708_180431)"/>
<path d="M76.3818 92.2708L79.9478 75.4941L91.3813 75.4941L87.8155 92.2708L76.3818 92.2708Z" fill="white"/>
<path d="M92.0259 18.6763C58.4994 14.4513 26.764 36.5663 19.6105 70.2206C14.614 93.7272 22.8631 116.969 39.3144 132.179L43.658 111.744C36.252 101.048 33.1021 87.4388 36.0205 73.7086C39.9634 55.159 53.9347 41.317 71.0527 36.6517L49.1535 139.684C53.9457 142.667 59.187 145.066 64.8003 146.763L92.0259 18.6763Z" fill="white"/>
<path fill-rule="evenodd" clip-rule="evenodd" d="M75.7351 149.107C106.715 153.136 136.225 134.802 146.377 105.59C148.602 99.1902 148.488 93.0777 145.602 87.861C144.783 86.3813 143.808 85.0961 142.744 83.9797C143.8 82.8768 144.77 81.6079 145.585 80.1476C148.493 74.9445 148.614 68.8428 146.389 62.4663C139.612 43.0397 123.828 27.1978 102.969 20.9822L99.4656 37.4641L79.2393 132.625L75.7351 149.107ZM130.531 100.082C125.092 115.732 112.146 127.214 96.6777 131.275L114.848 45.7896C122.073 51.5795 127.517 59.3012 130.549 67.9926C131.564 70.9034 131.006 71.8523 130.944 71.9582L130.94 71.9648C130.736 72.3289 130.059 73.0948 128.182 73.8855C126.37 74.6486 124.213 75.1023 122.325 75.3437C121.419 75.4595 120.658 75.5164 120.142 75.5439C119.886 75.5576 119.696 75.5638 119.585 75.5665L119.531 75.5677L119.502 75.5685C119.504 75.5685 119.507 75.5685 119.507 83.9568C119.507 92.3452 119.511 92.2703 119.511 92.2703C124.369 92.2703 126.295 93.2449 128.162 94.0377C130.029 94.8304 130.71 95.6005 130.922 95.982L130.926 95.9896C131 96.1195 131.563 97.1104 130.531 100.082Z" fill="white"/>
<path d="M67.1065 83.8828L26.563 83.8828" stroke="white" stroke-width="16.7766"/>
<path d="M121.63 83.8828H111.145H100.66" stroke="white" stroke-width="16.7766"/>
</g>
<path d="M201.32 120.524L230.209 50.0622H250.039L278.526 120.524H259.803L253.361 103.513H225.881L219.338 120.524H201.32ZM231.115 89.7221H248.227L239.772 67.1743L231.115 89.7221Z" fill="white"/>
<path d="M297.141 46.5391V120.524H280.834V50.0622L297.141 46.5391Z" fill="white"/>
<path d="M321.472 46.5391V120.524H305.165V50.0622L321.472 46.5391Z" fill="white"/>
<path d="M347.949 50.0622H382.878C386.435 50.0622 389.723 50.5655 392.743 51.5721C395.762 52.5115 398.346 53.8537 400.493 55.5984C402.641 57.3432 404.318 59.4571 405.526 61.94C406.734 64.3559 407.338 67.0066 407.338 69.8921C407.338 72.7777 406.6 75.4955 405.124 78.0456C403.714 80.5285 401.768 82.6424 399.285 84.3872C402.372 86.0648 404.855 88.2458 406.734 90.9301C408.613 93.6143 409.553 96.567 409.553 99.7881C409.553 105.962 407.238 110.961 402.607 114.786C397.977 118.611 391.971 120.524 384.589 120.524H347.949V50.0622ZM381.771 64.2552H365.262V78.1462H381.771C384.254 78.1462 386.233 77.5087 387.71 76.2337C389.253 74.9587 390.025 73.281 390.025 71.2007C390.025 69.1204 389.253 67.4428 387.71 66.1677C386.233 64.8927 384.254 64.2552 381.771 64.2552ZM383.281 106.331C385.965 106.331 388.079 105.66 389.622 104.318C391.233 102.976 392.038 101.164 392.038 98.8822C392.038 96.6006 391.233 94.7887 389.622 93.4465C388.079 92.1044 385.965 91.4334 383.281 91.4334H365.262V106.331H383.281Z" fill="white"/>
<path d="M455.16 120.524V116.598C453.079 118.075 450.831 119.215 448.415 120.021C445.999 120.826 443.483 121.229 440.866 121.229C437.108 121.229 433.551 120.524 430.196 119.115C426.908 117.706 424.022 115.759 421.539 113.277C419.123 110.794 417.211 107.908 415.802 104.62C414.392 101.264 413.688 97.6743 413.688 93.8492C413.688 90.0241 414.392 86.4675 415.802 83.1792C417.278 79.8239 419.258 76.9383 421.74 74.5225C424.223 72.0396 427.143 70.0935 430.498 68.6842C433.92 67.275 437.544 66.5704 441.369 66.5704C443.852 66.5704 446.234 66.8724 448.516 67.4763C450.798 68.0803 452.945 68.9527 454.958 70.0935V67.275H471.265V120.524H455.16ZM429.693 93.8492C429.693 97.6743 431.035 100.895 433.719 103.513C436.47 106.063 439.792 107.338 443.684 107.338C445.966 107.338 448.046 107.002 449.925 106.331C451.804 105.593 453.482 104.519 454.958 103.11V84.4878C453.549 83.2128 451.871 82.2062 449.925 81.468C447.979 80.7299 445.899 80.3608 443.684 80.3608C439.725 80.3608 436.403 81.6693 433.719 84.2865C431.035 86.8365 429.693 90.0241 429.693 93.8492Z" fill="white"/>
<path d="M495.669 46.5391V120.524H479.362V50.0622L495.669 46.5391Z" fill="white"/>
<path d="M520 46.5391V120.524H503.693V50.0622L520 46.5391Z" fill="white"/>
<defs>
<linearGradient id="paint0_linear_708_180431" x1="22.8349" y1="8.38832" x2="142.601" y2="182.679" gradientUnits="userSpaceOnUse">
<stop stop-color="#EF984D"/>
<stop offset="1" stop-color="#FC7529"/>
</linearGradient>
<clipPath id="clip0_708_180431">
<rect width="167.766" height="167.766" fill="white"/>
</clipPath>
</defs>
</svg>
