<svg width="600" height="96" viewBox="0 0 600 96" fill="none" xmlns="http://www.w3.org/2000/svg">
<path d="M0.159912 18.8338V3.87891H62.1441V18.8338H39.6133V74.39H22.6907V18.8338H0.159912Z" fill="#329AF0"/>
<path fill-rule="evenodd" clip-rule="evenodd" d="M108.386 75.3812C99.3673 75.3812 86.3603 75.3812 82.0313 75.3812C78.0958 75.3812 74.3899 74.6925 70.9135 73.3151C67.4371 71.9377 64.4199 70.0355 61.8618 67.6086C59.3694 65.1817 57.3688 62.3285 55.8602 59.0489C54.4172 55.7037 53.6957 52.1618 53.6957 48.423C53.6957 44.6843 54.3844 41.1752 55.7618 37.8956C57.2048 34.5504 59.1398 31.6644 61.5667 29.2375C63.9936 26.8106 66.8468 24.9084 70.1264 23.531C73.4716 22.1536 77.0463 21.4648 80.8506 21.4648C84.655 21.4648 88.1641 22.1864 91.3781 23.6294C94.5921 25.0724 97.347 27.0401 99.6427 29.5326C102.004 32.0251 103.841 35.0423 105.152 38.5843C106.464 42.0606 107.12 45.8322 107.12 49.8988V53.8343H70.028C71.0775 56.2612 72.7173 58.2618 74.9474 59.836C77.1775 61.3446 80.772 62.3285 83.7892 62.3285C85.9537 62.3285 98.5343 62.3285 100.187 62.3285L108.386 75.3812ZM73.7667 36.6165C75.6689 35.1735 77.9318 34.452 80.5555 34.452C83.1136 34.452 85.3437 35.2063 87.2458 36.7149C89.2136 38.2235 90.6238 40.2241 91.4765 42.7166H69.7328C70.5199 40.0929 71.8646 38.0595 73.7667 36.6165Z" fill="#329AF0"/>
<path d="M141.026 61.6018C143.19 61.6018 145.191 61.1427 147.027 60.2244C148.864 59.3061 150.635 57.8959 152.34 55.9937L161.785 65.8325C159.162 68.8497 155.948 71.211 152.143 72.9164C148.339 74.5562 144.371 75.3761 140.238 75.3761C136.369 75.3761 132.728 74.6874 129.317 73.31C125.972 71.9325 123.053 70.0304 120.561 67.6035C118.134 65.1766 116.199 62.3233 114.756 59.0438C113.379 55.7642 112.69 52.2222 112.69 48.4179C112.69 44.6136 113.379 41.0716 114.756 37.7921C116.199 34.4469 118.134 31.5936 120.561 29.2323C123.053 26.8054 125.972 24.9033 129.317 23.5259C132.728 22.0828 136.369 21.3613 140.238 21.3613C144.502 21.3613 148.569 22.214 152.439 23.9194C156.308 25.6248 159.588 27.9861 162.277 31.0033L152.537 41.1372C150.7 39.1039 148.831 37.5953 146.929 36.6114C145.027 35.6275 142.928 35.1356 140.632 35.1356C137.221 35.1356 134.335 36.4146 131.974 38.9727C129.678 41.5308 128.53 44.6792 128.53 48.4179C128.53 52.1566 129.711 55.305 132.072 57.8631C134.499 60.3556 137.484 61.6018 141.026 61.6018Z" fill="#329AF0"/>
<path d="M168.088 74.391V5.51973L184.027 2.07617V25.886C185.929 24.4429 188.061 23.3279 190.422 22.5408C192.849 21.7537 195.374 21.3601 197.998 21.3601C204.098 21.3601 209.083 23.3279 212.953 27.2634C216.823 31.1989 218.758 36.2167 218.758 42.3167V74.391H202.819V44.4812C202.819 41.6608 201.934 39.3979 200.163 37.6925C198.457 35.9215 196.194 35.036 193.374 35.036C191.341 35.036 189.537 35.3968 187.963 36.1183C186.388 36.8398 185.077 37.8564 184.027 39.1683V74.391H168.088Z" fill="#329AF0"/>
<path d="M229.022 74.4045V5.5332H245.945V74.4045H229.022Z" fill="white"/>
<path d="M256.579 74.4056V23.9983L272.518 20.7188V25.9005C274.42 24.4575 276.552 23.3424 278.913 22.5553C281.34 21.7682 283.866 21.3747 286.489 21.3747C292.589 21.3747 297.574 23.3424 301.444 27.2779C305.314 31.2134 307.249 36.2312 307.249 42.3312V74.4056H291.31V44.4957C291.31 41.6753 290.425 39.4124 288.654 37.707C286.948 35.936 284.686 35.0505 281.865 35.0505C279.832 35.0505 278.028 35.4113 276.454 36.1328C274.88 36.8543 273.568 37.871 272.518 39.1828V74.4056H256.579Z" fill="white"/>
<path d="M314.332 68.6015L321.908 57.8773C325.188 59.845 328.172 61.288 330.862 62.2063C333.551 63.059 336.207 63.4854 338.831 63.4854C341.455 63.4854 343.521 63.1246 345.029 62.4031C346.604 61.616 347.391 60.5993 347.391 59.3531C347.391 58.3692 346.964 57.5821 346.112 56.9918C345.259 56.3359 343.914 55.8767 342.078 55.6144L331.747 54.0402C326.631 53.2531 322.695 51.5477 319.941 48.924C317.186 46.2347 315.808 42.7584 315.808 38.4949C315.808 33.2476 317.809 29.1153 321.81 26.0981C325.811 23.0809 331.288 21.5723 338.241 21.5723C341.979 21.5723 345.718 22.1298 349.457 23.2448C353.261 24.2943 356.77 25.8357 359.984 27.8691L352.408 38.1014C349.588 36.4616 346.899 35.2809 344.341 34.5594C341.783 33.7723 339.224 33.3788 336.666 33.3788C334.633 33.3788 332.993 33.7395 331.747 34.461C330.501 35.1169 329.878 36.0024 329.878 37.1175C329.878 38.167 330.337 39.0197 331.255 39.6756C332.173 40.2659 333.748 40.725 335.978 41.053L346.308 42.6272C351.425 43.3487 355.36 45.0541 358.115 47.7434C360.935 50.367 362.346 53.7122 362.346 57.7789C362.346 60.2714 361.755 62.5999 360.575 64.7644C359.394 66.9289 357.754 68.7983 355.655 70.3725C353.622 71.9467 351.162 73.1929 348.276 74.1112C345.39 74.9639 342.274 75.3903 338.929 75.3903C334.01 75.3903 329.419 74.8327 325.155 73.7177C320.957 72.537 317.35 70.8316 314.332 68.6015Z" fill="white"/>
<path d="M378.034 17.5384C375.607 17.5384 373.541 16.6857 371.836 14.9803C370.13 13.2749 369.278 11.2088 369.278 8.78188C369.278 6.35499 370.13 4.28885 371.836 2.58347C373.541 0.878084 375.607 0.0253906 378.034 0.0253906C380.461 0.0253906 382.527 0.878084 384.232 2.58347C385.938 4.28885 386.791 6.35499 386.791 8.78188C386.791 11.2088 385.938 13.2749 384.232 14.9803C382.527 16.6857 380.461 17.5384 378.034 17.5384ZM386.003 22.3594V74.4064H370.065V22.3594H386.003Z" fill="white"/>
<path d="M419.919 74.6035C416.246 74.6035 412.77 73.9147 409.49 72.5373C406.276 71.1599 403.489 69.2905 401.127 66.9292C398.766 64.5023 396.897 61.6819 395.519 58.4679C394.142 55.1883 393.453 51.7119 393.453 48.0388C393.453 44.3657 394.142 40.9221 395.519 37.7081C396.962 34.4941 398.897 31.7065 401.324 29.3452C403.751 26.9839 406.604 25.1145 409.884 23.7371C413.229 22.3597 416.771 21.671 420.51 21.671C422.871 21.671 425.167 21.9661 427.397 22.5564C429.627 23.1468 431.693 23.9995 433.595 25.1145V22.3597L449.337 19.0801V73.9147C449.337 80.9331 447.009 86.3116 442.352 90.0503C437.695 93.8546 431.037 95.7568 422.379 95.7568C418.247 95.7568 415.716 95.7568 409.977 95.7568C406.697 95.7568 400.958 95.7568 396.858 95.7568L401.778 82.7696C405.057 82.7696 409.977 82.7696 413.032 82.7696C416.185 82.7696 419.329 82.7696 422.084 82.7696C425.823 82.7696 428.643 82.0153 430.545 80.5067C432.448 78.9981 433.399 76.7352 433.399 73.718V70.4712C431.431 71.783 429.299 72.7997 427.003 73.5212C424.708 74.2427 422.346 74.6035 419.919 74.6035ZM409.097 48.0388C409.097 51.7775 410.409 54.9259 413.032 57.484C415.656 59.9765 418.87 61.2227 422.674 61.2227C424.839 61.2227 426.807 60.8948 428.578 60.2389C430.414 59.583 432.021 58.6319 433.399 57.3856V38.9872C432.021 37.8065 430.414 36.8882 428.578 36.2323C426.741 35.5108 424.806 35.15 422.773 35.15C418.968 35.15 415.722 36.3963 413.032 38.8888C410.409 41.3813 409.097 44.4313 409.097 48.0388Z" fill="white"/>
<path d="M459.132 74.4047V5.5334L475.071 2.08984V25.8996C476.973 24.4566 479.105 23.3416 481.466 22.5545C483.893 21.7674 486.418 21.3738 489.042 21.3738C495.142 21.3738 500.127 23.3416 503.997 27.2771C507.867 31.2126 509.802 36.2303 509.802 42.3304V74.4047H493.863V44.4949C493.863 41.6744 492.978 39.4115 491.207 37.7061C489.501 35.9352 487.238 35.0497 484.418 35.0497C482.385 35.0497 480.581 35.4104 479.007 36.1319C477.432 36.8534 476.121 37.8701 475.071 39.182V74.4047H459.132Z" fill="white"/>
<path d="M518.178 58.5641V35.6398V22.3575V8.97677L534.117 5.5332V22.3575H548.678V35.6398H534.117V55.4157C534.117 57.7114 534.608 59.3512 535.592 60.3351C536.642 61.2533 538.446 61.7125 541.004 61.7125C542.25 61.7125 543.431 61.6469 544.546 61.5157C545.661 61.3189 546.874 61.0238 548.186 60.6302V73.519C546.743 73.9781 544.906 74.3389 542.676 74.6013C540.446 74.9292 538.577 75.0932 537.068 75.0932C530.837 75.0932 526.114 73.7158 522.9 70.9609C519.752 68.1405 518.178 64.0082 518.178 58.5641Z" fill="white"/>
<path d="M551.827 68.6015L559.403 57.8773C562.682 59.845 565.667 61.288 568.356 62.2063C571.045 63.059 573.702 63.4854 576.325 63.4854C578.949 63.4854 581.015 63.1246 582.524 62.4031C584.098 61.616 584.885 60.5993 584.885 59.3531C584.885 58.3692 584.459 57.5821 583.606 56.9918C582.753 56.3359 581.409 55.8767 579.572 55.6144L569.241 54.0402C564.125 53.2531 560.19 51.5477 557.435 48.924C554.68 46.2347 553.303 42.7584 553.303 38.4949C553.303 33.2476 555.303 29.1153 559.304 26.0981C563.305 23.0809 568.782 21.5723 575.735 21.5723C579.474 21.5723 583.213 22.1298 586.951 23.2448C590.756 24.2943 594.265 25.8357 597.479 27.8691L589.903 38.1014C587.082 36.4616 584.393 35.2809 581.835 34.5594C579.277 33.7723 576.719 33.3788 574.161 33.3788C572.128 33.3788 570.488 33.7395 569.241 34.461C567.995 35.1169 567.372 36.0024 567.372 37.1175C567.372 38.167 567.831 39.0197 568.75 39.6756C569.668 40.2659 571.242 40.725 573.472 41.053L583.803 42.6272C588.919 43.3487 592.854 45.0541 595.609 47.7434C598.43 50.367 599.84 53.7122 599.84 57.7789C599.84 60.2714 599.25 62.5999 598.069 64.7644C596.888 66.9289 595.249 68.7983 593.15 70.3725C591.116 71.9467 588.657 73.1929 585.771 74.1112C582.885 74.9639 579.769 75.3903 576.424 75.3903C571.504 75.3903 566.913 74.8327 562.65 73.7177C558.452 72.537 554.844 70.8316 551.827 68.6015Z" fill="white"/>
</svg>
