<svg width="256" height="256" viewBox="0 0 256 256" fill="none" xmlns="http://www.w3.org/2000/svg">
<g clip-path="url(#clip0_923_39827)">
<rect width="256" height="256" fill="#0D1D1C"/>
<rect width="256" height="256" fill="url(#paint0_linear_923_39827)"/>
<path d="M111.864 69.9345C112.638 68.0062 112.188 65.8015 110.718 64.332C109.249 62.8625 107.044 62.4119 105.116 63.1868C80.3283 73.1482 62.8125 97.414 62.8125 125.783C62.8125 163.028 93.0053 193.221 130.25 193.221C158.619 193.221 182.885 175.705 192.846 150.917C193.621 148.989 193.171 146.784 191.701 145.315C190.232 143.845 188.027 143.395 186.099 144.17C179.534 146.808 172.36 148.262 164.833 148.262C133.319 148.262 107.771 122.715 107.771 91.1999C107.771 83.6735 109.225 76.4996 111.864 69.9345Z" fill="white"/>
</g>
<defs>
<linearGradient id="paint0_linear_923_39827" x1="256" y1="256" x2="1.52588e-05" y2="-1.52588e-05" gradientUnits="userSpaceOnUse">
<stop stop-color="#161C24"/>
<stop offset="1" stop-color="#212B36"/>
</linearGradient>
<clipPath id="clip0_923_39827">
<rect width="256" height="256" rx="57" fill="white"/>
</clipPath>
</defs>
</svg>
