<svg width="256" height="256" viewBox="0 0 256 256" fill="none" xmlns="http://www.w3.org/2000/svg">
<g clip-path="url(#clip0_924_42959)">
<rect width="256" height="256" fill="white"/>
<path fill-rule="evenodd" clip-rule="evenodd" d="M189.163 98.2489C180.09 79.6298 162.765 65.7712 141.947 61.4317L120.516 98.2488L189.163 98.2489ZM132.844 60.1699C131.244 60.0573 129.629 60 128 60C107.806 60 89.6688 68.8022 77.2145 82.7791L98.2811 119.511L132.844 60.1699ZM71.5769 90.0345C64.2671 100.877 60 113.94 60 128C60 135.421 61.1886 142.564 63.3858 149.249H105.726L94.571 130.127L71.5769 90.0345ZM66.8354 157.749C75.9307 176.414 93.3184 190.296 114.204 194.6L135.509 157.749H66.8354ZM123.305 195.84C124.857 195.946 126.422 196 128 196C148.225 196 166.389 187.17 178.845 173.155L157.726 136.475L146.554 155.626L146.546 155.64L123.305 195.84ZM184.472 165.893C191.752 155.065 196 142.029 196 128C196 120.579 194.811 113.435 192.613 106.749L150.274 106.749L161.427 125.868L184.472 165.893Z" fill="#0E0E0E"/>
</g>
<defs>
<clipPath id="clip0_924_42959">
<rect width="256" height="256" rx="57" fill="white"/>
</clipPath>
</defs>
</svg>
